<svg width="33" height="33" viewBox="0 0 33 33" fill="none" xmlns="http://www.w3.org/2000/svg">
<path d="M29.5741 13.7442H28.5001V13.6889H16.5001V19.0222H24.0354C22.9361 22.1269 19.9821 24.3555 16.5001 24.3555C12.0821 24.3555 8.50008 20.7735 8.50008 16.3555C8.50008 11.9375 12.0821 8.35555 16.5001 8.35555C18.5394 8.35555 20.3947 9.12488 21.8074 10.3815L25.5787 6.61022C23.1974 4.39088 20.0121 3.02222 16.5001 3.02222C9.13675 3.02222 3.16675 8.99222 3.16675 16.3555C3.16675 23.7189 9.13675 29.6889 16.5001 29.6889C23.8634 29.6889 29.8334 23.7189 29.8334 16.3555C29.8334 15.4615 29.7414 14.5889 29.5741 13.7442Z" fill="#FFC107"/>
<path d="M4.7041 10.1496L9.08477 13.3622C10.2701 10.4276 13.1408 8.35555 16.5001 8.35555C18.5394 8.35555 20.3948 9.12488 21.8074 10.3815L25.5788 6.61022C23.1974 4.39088 20.0121 3.02222 16.5001 3.02222C11.3788 3.02222 6.93743 5.91355 4.7041 10.1496Z" fill="#FF3D00"/>
<path d="M16.4999 29.6888C19.9439 29.6888 23.0732 28.3708 25.4392 26.2274L21.3125 22.7354C19.9289 23.7877 18.2382 24.3568 16.4999 24.3554C13.0319 24.3554 10.0872 22.1441 8.97788 19.0581L4.62988 22.4081C6.83655 26.7261 11.3179 29.6888 16.4999 29.6888Z" fill="#4CAF50"/>
<path d="M29.574 13.7441H28.5V13.6887H16.5V19.0221H24.0353C23.5095 20.4997 22.5622 21.7908 21.3107 22.7361L21.3127 22.7347L25.4393 26.2267C25.1473 26.4921 29.8333 23.0221 29.8333 16.3554C29.8333 15.4614 29.7413 14.5887 29.574 13.7441Z" fill="#1976D2"/>
</svg>
